<svg width="15" height="15" fill="none" xmlns="http://www.w3.org/2000/svg"><g opacity=".4"><path d="M11.073 6.533L7.52 10.085a.537.537 0 01-.414.178.537.537 0 01-.415-.178L3.14 6.534a.572.572 0 010-.829.572.572 0 01.829 0l3.138 3.138 3.138-3.138a.572.572 0 01.829 0 .572.572 0 010 .829z" fill="#000"/><mask id="a" maskUnits="userSpaceOnUse" x="2" y="5" width="10" height="6"><path d="M11.073 6.533L7.52 10.085a.537.537 0 01-.414.178.537.537 0 01-.415-.178L3.14 6.534a.572.572 0 010-.829.572.572 0 01.829 0l3.138 3.138 3.138-3.138a.572.572 0 01.829 0 .572.572 0 010 .829z" fill="#fff"/></mask><g mask="url(#a)"><path fill="#000" d="M0 .789h35.526v35.526H0z"/></g></g></svg>