<svg width="16" height="16" fill="none" xmlns="http://www.w3.org/2000/svg"><g opacity=".4"><path d="M14 8c0 .4-.267.667-.667.667H4.267l2.866 2.866a.645.645 0 010 .934.605.605 0 01-.466.2.605.605 0 01-.467-.2l-4-4c-.067-.067-.133-.134-.133-.2-.067-.134-.067-.334 0-.534.066-.066.066-.133.133-.2l4-4a.644.644 0 01.933 0 .644.644 0 010 .934L4.267 7.333h9.066c.4 0 .667.267.667.667z" fill="#000"/><mask id="a" maskUnits="userSpaceOnUse" x="2" y="3" width="12" height="10"><path d="M14 8c0 .4-.267.667-.667.667H4.267l2.866 2.866a.645.645 0 010 .934.605.605 0 01-.466.2.605.605 0 01-.467-.2l-4-4c-.067-.067-.133-.134-.133-.2-.067-.134-.067-.334 0-.534.066-.066.066-.133.133-.2l4-4a.644.644 0 01.933 0 .644.644 0 010 .934L4.267 7.333h9.066c.4 0 .667.267.667.667z" fill="#fff"/></mask><g mask="url(#a)"><path fill="#14141E" fill-opacity=".6" d="M0 0h40v40H0z"/></g></g></svg>