<svg width="19" height="19" fill="none" xmlns="http://www.w3.org/2000/svg"><g opacity=".4"><path fill-rule="evenodd" clip-rule="evenodd" d="M17.971 5.304l-7.916 7.917a.719.719 0 01-.555.237H6.334c-.475 0-.792-.316-.792-.791V9.5c0-.237.08-.396.237-.554l7.917-7.917a.765.765 0 011.109 0l3.166 3.167a.765.765 0 010 1.108zm-1.346 6.333v4.196c0 1.346-1.029 2.375-2.375 2.375H3.167c-1.346 0-2.375-1.029-2.375-2.375V4.75c0-1.346 1.03-2.375 2.375-2.375h4.196c.475 0 .791.317.791.792 0 .475-.316.791-.791.791H3.167c-.475 0-.792.317-.792.792v11.083c0 .475.317.792.792.792H14.25c.475 0 .792-.317.792-.792v-4.196c0-.475.317-.791.792-.791.475 0 .791.316.791.791zM14.25 2.692l2.06 2.058-7.125 7.125h-2.06V9.817l7.125-7.125z" fill="#000"/><mask id="a" maskUnits="userSpaceOnUse" x="0" y="0" width="19" height="19"><path fill-rule="evenodd" clip-rule="evenodd" d="M17.971 5.304l-7.916 7.917a.719.719 0 01-.555.237H6.334c-.475 0-.792-.316-.792-.791V9.5c0-.237.08-.396.237-.554l7.917-7.917a.765.765 0 011.109 0l3.166 3.167a.765.765 0 010 1.108zm-1.346 6.333v4.196c0 1.346-1.029 2.375-2.375 2.375H3.167c-1.346 0-2.375-1.029-2.375-2.375V4.75c0-1.346 1.03-2.375 2.375-2.375h4.196c.475 0 .791.317.791.792 0 .475-.316.791-.791.791H3.167c-.475 0-.792.317-.792.792v11.083c0 .475.317.792.792.792H14.25c.475 0 .792-.317.792-.792v-4.196c0-.475.317-.791.792-.791.475 0 .791.316.791.791zM14.25 2.692l2.06 2.058-7.125 7.125h-2.06V9.817l7.125-7.125z" fill="#fff"/></mask><g mask="url(#a)"><path fill="#14141E" d="M0 0h47.5v47.5H0z"/></g></g></svg>