<svg width="93" height="34" fill="none" xmlns="http://www.w3.org/2000/svg"><path opacity=".6" fill-rule="evenodd" clip-rule="evenodd" d="M0 14.693V.029h14.643v10.998h-3.65v3.666H0zm18.304-3.666V3.694h10.981v10.999h-7.31v-3.666h-3.671zm65.58-.146l-5.6 13.21h3.834l.94-2.342h5.075l.958 2.342H93l-5.6-13.21h-3.515zm3.196 8.039l-1.466-3.73-1.484 3.73h2.95zm-19.563-7.945v3.185h3.947v9.93h3.645v-9.93h3.946v-3.185H67.517zM55.659 24.228V11.021h10.15v3.114H59.12v2h6.057v2.887H59.12v2.093h6.78v3.113H55.658zm-6.768-13.207l-3.124 5.113-3.123-5.113H38.81v13.207h3.553v-7.546l3.329 5.132h.075l3.348-5.17v7.584h3.609V11.021h-3.833zm-30.592 7.338h-3.652v-3.666h3.652v3.666zm3.676 0v3.667h-3.671v10.997h14.643V18.358H21.975zM3.66 29.357v-11h7.332v3.668h3.65v7.332H3.661z" fill="#fff"/></svg>