<svg width="19" height="19" fill="none" xmlns="http://www.w3.org/2000/svg"><g opacity=".4"><path d="M14.804 13.696a.765.765 0 010 1.108.718.718 0 01-.554.238.718.718 0 01-.555-.238L9.5 10.608l-4.196 4.196a.718.718 0 01-.554.238.718.718 0 01-.554-.238.765.765 0 010-1.108L8.39 9.5 4.196 5.304a.765.765 0 010-1.108.765.765 0 011.108 0L9.5 8.392l4.195-4.196a.765.765 0 011.109 0 .765.765 0 010 1.108L10.608 9.5l4.196 4.196z" fill="#000"/><mask id="a" maskUnits="userSpaceOnUse" x="3" y="3" width="13" height="13"><path d="M14.804 13.696a.765.765 0 010 1.108.718.718 0 01-.554.238.718.718 0 01-.555-.238L9.5 10.608l-4.196 4.196a.718.718 0 01-.554.238.718.718 0 01-.554-.238.765.765 0 010-1.108L8.39 9.5 4.196 5.304a.765.765 0 010-1.108.765.765 0 011.108 0L9.5 8.392l4.195-4.196a.765.765 0 011.109 0 .765.765 0 010 1.108L10.608 9.5l4.196 4.196z" fill="#fff"/></mask><g mask="url(#a)"><path fill="#14141E" d="M0 0h47.5v47.5H0z"/></g></g></svg>