<svg width="14" height="14" fill="none" xmlns="http://www.w3.org/2000/svg"><path fill-rule="evenodd" clip-rule="evenodd" d="M4.083 4.083A2.888 2.888 0 017 1.167a2.888 2.888 0 012.917 2.916A2.888 2.888 0 017 7a2.888 2.888 0 01-2.917-2.917zm8.167 7v1.167c0 .35-.233.583-.583.583s-.584-.233-.584-.583v-1.167c0-.991-.758-1.75-1.75-1.75H4.667c-.992 0-1.75.759-1.75 1.75v1.167c0 .35-.234.583-.584.583s-.583-.233-.583-.583v-1.167a2.888 2.888 0 012.917-2.916h4.666a2.888 2.888 0 012.917 2.916zM7 5.833c-.992 0-1.75-.758-1.75-1.75 0-.991.758-1.75 1.75-1.75s1.75.759 1.75 1.75c0 .992-.758 1.75-1.75 1.75z" fill="#AAA"/><mask id="a" maskUnits="userSpaceOnUse" x="1" y="1" width="12" height="12"><path fill-rule="evenodd" clip-rule="evenodd" d="M4.083 4.083A2.888 2.888 0 017 1.167a2.888 2.888 0 012.917 2.916A2.888 2.888 0 017 7a2.888 2.888 0 01-2.917-2.917zm8.167 7v1.167c0 .35-.233.583-.583.583s-.584-.233-.584-.583v-1.167c0-.991-.758-1.75-1.75-1.75H4.667c-.992 0-1.75.759-1.75 1.75v1.167c0 .35-.234.583-.584.583s-.583-.233-.583-.583v-1.167a2.888 2.888 0 012.917-2.916h4.666a2.888 2.888 0 012.917 2.916zM7 5.833c-.992 0-1.75-.758-1.75-1.75 0-.991.758-1.75 1.75-1.75s1.75.759 1.75 1.75c0 .992-.758 1.75-1.75 1.75z" fill="#fff"/></mask><g mask="url(#a)"><path fill="#AAA" d="M0 0h35v35H0z"/></g></svg>