<svg width="16" height="16" viewBox="0 0 16 16" fill="none" xmlns="http://www.w3.org/2000/svg">
<g opacity="0.4">
<path d="M13.9999 8C13.9999 8.39999 13.7333 8.66666 13.3333 8.66666H4.2666L7.13327 11.5333C7.39994 11.8 7.39994 12.2 7.13327 12.4667C6.99994 12.6 6.8666 12.6667 6.6666 12.6667C6.4666 12.6667 6.33327 12.6 6.19993 12.4667L2.19993 8.46666C2.13327 8.39999 2.0666 8.33333 2.0666 8.26666C1.99993 8.13333 1.99993 7.93333 2.0666 7.73333C2.13327 7.66666 2.13327 7.6 2.19993 7.53333L6.19993 3.53333C6.4666 3.26666 6.8666 3.26666 7.13327 3.53333C7.39994 3.79999 7.39994 4.19999 7.13327 4.46666L4.2666 7.33333H13.3333C13.7333 7.33333 13.9999 7.6 13.9999 8Z" fill="black"/>
<mask id="mask0" mask-type="alpha" maskUnits="userSpaceOnUse" x="2" y="3" width="12" height="10">
<path d="M13.9999 8C13.9999 8.39999 13.7333 8.66666 13.3333 8.66666H4.2666L7.13327 11.5333C7.39994 11.8 7.39994 12.2 7.13327 12.4667C6.99994 12.6 6.8666 12.6667 6.6666 12.6667C6.4666 12.6667 6.33327 12.6 6.19993 12.4667L2.19993 8.46666C2.13327 8.39999 2.0666 8.33333 2.0666 8.26666C1.99993 8.13333 1.99993 7.93333 2.0666 7.73333C2.13327 7.66666 2.13327 7.6 2.19993 7.53333L6.19993 3.53333C6.4666 3.26666 6.8666 3.26666 7.13327 3.53333C7.39994 3.79999 7.39994 4.19999 7.13327 4.46666L4.2666 7.33333H13.3333C13.7333 7.33333 13.9999 7.6 13.9999 8Z" fill="white"/>
</mask>
<g mask="url(#mask0)">
<rect width="40" height="40" fill="#14141E" fill-opacity="0.6"/>
</g>
</g>
</svg>
