<svg width="15" height="15" viewBox="0 0 15 15" fill="none" xmlns="http://www.w3.org/2000/svg">
<g opacity="0.4">
<path d="M11.0728 6.53292L7.52015 10.0855C7.40173 10.204 7.28331 10.2632 7.10567 10.2632C6.92804 10.2632 6.80962 10.204 6.6912 10.0855L3.13857 6.53292C2.90173 6.29607 2.90173 5.94081 3.13857 5.70397C3.37541 5.46713 3.73067 5.46713 3.96752 5.70397L7.10567 8.84213L10.2438 5.70397C10.4807 5.46713 10.8359 5.46713 11.0728 5.70397C11.3096 5.94081 11.3096 6.29607 11.0728 6.53292Z" fill="black"/>
<mask id="mask0" mask-type="alpha" maskUnits="userSpaceOnUse" x="2" y="5" width="10" height="6">
<path d="M11.0728 6.53292L7.52015 10.0855C7.40173 10.204 7.28331 10.2632 7.10567 10.2632C6.92804 10.2632 6.80962 10.204 6.6912 10.0855L3.13857 6.53292C2.90173 6.29607 2.90173 5.94081 3.13857 5.70397C3.37541 5.46713 3.73067 5.46713 3.96752 5.70397L7.10567 8.84213L10.2438 5.70397C10.4807 5.46713 10.8359 5.46713 11.0728 5.70397C11.3096 5.94081 11.3096 6.29607 11.0728 6.53292Z" fill="white"/>
</mask>
<g mask="url(#mask0)">
<rect y="0.78949" width="35.5263" height="35.5263" fill="black"/>
</g>
</g>
</svg>
