<svg width="19" height="19" viewBox="0 0 19 19" fill="none" xmlns="http://www.w3.org/2000/svg">
<g opacity="0.4">
<path fill-rule="evenodd" clip-rule="evenodd" d="M17.9712 5.30419L10.0545 13.2209C9.89616 13.3792 9.73783 13.4584 9.50033 13.4584H6.33366C5.85866 13.4584 5.54199 13.1417 5.54199 12.6667V9.50002C5.54199 9.26252 5.62116 9.10419 5.77949 8.94585L13.6962 1.02919C14.0128 0.71252 14.4878 0.71252 14.8045 1.02919L17.9712 4.19585C18.2878 4.51252 18.2878 4.98752 17.9712 5.30419ZM16.6253 11.6375V15.8334C16.6253 17.1792 15.5962 18.2084 14.2503 18.2084H3.16699C1.82116 18.2084 0.791992 17.1792 0.791992 15.8334V4.75002C0.791992 3.40419 1.82116 2.37502 3.16699 2.37502H7.36283C7.83783 2.37502 8.15449 2.69169 8.15449 3.16669C8.15449 3.64169 7.83783 3.95835 7.36283 3.95835H3.16699C2.69199 3.95835 2.37533 4.27502 2.37533 4.75002V15.8334C2.37533 16.3084 2.69199 16.625 3.16699 16.625H14.2503C14.7253 16.625 15.042 16.3084 15.042 15.8334V11.6375C15.042 11.1625 15.3587 10.8459 15.8337 10.8459C16.3087 10.8459 16.6253 11.1625 16.6253 11.6375ZM14.2503 2.69169L16.3087 4.75002L9.18366 11.875H7.12533V9.81669L14.2503 2.69169Z" fill="black"/>
<mask id="mask0" mask-type="alpha" maskUnits="userSpaceOnUse" x="0" y="0" width="19" height="19">
<path fill-rule="evenodd" clip-rule="evenodd" d="M17.9712 5.30419L10.0545 13.2209C9.89616 13.3792 9.73783 13.4584 9.50033 13.4584H6.33366C5.85866 13.4584 5.54199 13.1417 5.54199 12.6667V9.50002C5.54199 9.26252 5.62116 9.10419 5.77949 8.94585L13.6962 1.02919C14.0128 0.71252 14.4878 0.71252 14.8045 1.02919L17.9712 4.19585C18.2878 4.51252 18.2878 4.98752 17.9712 5.30419ZM16.6253 11.6375V15.8334C16.6253 17.1792 15.5962 18.2084 14.2503 18.2084H3.16699C1.82116 18.2084 0.791992 17.1792 0.791992 15.8334V4.75002C0.791992 3.40419 1.82116 2.37502 3.16699 2.37502H7.36283C7.83783 2.37502 8.15449 2.69169 8.15449 3.16669C8.15449 3.64169 7.83783 3.95835 7.36283 3.95835H3.16699C2.69199 3.95835 2.37533 4.27502 2.37533 4.75002V15.8334C2.37533 16.3084 2.69199 16.625 3.16699 16.625H14.2503C14.7253 16.625 15.042 16.3084 15.042 15.8334V11.6375C15.042 11.1625 15.3587 10.8459 15.8337 10.8459C16.3087 10.8459 16.6253 11.1625 16.6253 11.6375ZM14.2503 2.69169L16.3087 4.75002L9.18366 11.875H7.12533V9.81669L14.2503 2.69169Z" fill="white"/>
</mask>
<g mask="url(#mask0)">
<rect width="47.5" height="47.5" fill="#14141E"/>
</g>
</g>
</svg>
