<svg width="93" height="34" viewBox="0 0 93 34" fill="none" xmlns="http://www.w3.org/2000/svg">
<path opacity="0.6" fill-rule="evenodd" clip-rule="evenodd" d="M0 14.6929V0.0288086H14.6434V11.0269H10.993V14.6929H0ZM18.304 11.0267V3.69434H29.2852V14.6929H21.9749V11.0267H18.304ZM83.8846 10.8813L78.2849 24.0908H82.1184L83.0579 21.749H88.1326L89.0911 24.0908H93L87.4003 10.8813H83.8846ZM87.0803 18.9199L85.6143 15.1909L84.1299 18.9199H87.0803ZM67.5167 10.9751V14.1602H71.4637V24.0908H75.109V14.1602H79.0552V10.9751H67.5167ZM55.659 24.228V11.021H65.8083V14.1349H59.1204V16.1343H65.1771V19.0216H59.1204V21.1149H65.8991V24.228H55.659ZM48.8905 11.021L45.7674 16.1343L42.6442 11.021H38.81V24.228H42.363V16.682L45.6919 21.8136H45.7674L49.1146 16.6431V24.228H52.724V11.021H48.8905ZM18.2989 18.3588H14.647V14.6929H18.2989V18.3588ZM21.9749 18.3584V22.0259H18.304V33.0234H32.9466V18.3584H21.9749ZM3.66139 29.3579V18.3584H10.993V22.0259H14.6434V29.3579H3.66139Z" fill="white"/>
</svg>
