<svg width="16" height="16" fill="none" xmlns="http://www.w3.org/2000/svg"><g clip-path="url(#clip0)" fill-rule="evenodd" clip-rule="evenodd" fill="#293554"><path d="M15.333 2c.368 0 .667.299.667.667v4a.667.667 0 0 1-.667.667h-4a.667.667 0 0 1 0-1.334h3.334V2.667c0-.368.298-.667.666-.667zM0 9.334c0-.369.298-.667.667-.667h4a.667.667 0 0 1 0 1.333H1.333v3.334a.667.667 0 1 1-1.333 0v-4z"/><path d="M9.478 2.877a5.333 5.333 0 0 0-6.51 3.344.667.667 0 0 1-1.256-.445A6.667 6.667 0 0 1 12.704 3.28l3.086 2.9a.667.667 0 0 1-.913.971l-3.094-2.907a5.333 5.333 0 0 0-2.305-1.368zM.181 8.875a.667.667 0 0 1 .942-.029l3.094 2.907.015.014a5.333 5.333 0 0 0 8.8-1.99.667.667 0 0 1 1.257.444 6.667 6.667 0 0 1-10.993 2.496L.21 9.817a.667.667 0 0 1-.03-.942z"/></g><defs><clipPath id="clip0"><path fill="#fff" d="M0 0h16v16H0z"/></clipPath></defs></svg>