<svg width="19" height="19" viewBox="0 0 19 19" fill="none" xmlns="http://www.w3.org/2000/svg">
<g opacity="0.4">
<path d="M14.8038 13.6958C15.1205 14.0125 15.1205 14.4875 14.8038 14.8041C14.6455 14.9625 14.4872 15.0416 14.2497 15.0416C14.0122 15.0416 13.8538 14.9625 13.6955 14.8041L9.49967 10.6083L5.30384 14.8041C5.14551 14.9625 4.98717 15.0416 4.74967 15.0416C4.51217 15.0416 4.35384 14.9625 4.19551 14.8041C3.87884 14.4875 3.87884 14.0125 4.19551 13.6958L8.39134 9.49998L4.19551 5.30415C3.87884 4.98748 3.87884 4.51248 4.19551 4.19581C4.51217 3.87915 4.98717 3.87915 5.30384 4.19581L9.49967 8.39165L13.6955 4.19581C14.0122 3.87915 14.4872 3.87915 14.8038 4.19581C15.1205 4.51248 15.1205 4.98748 14.8038 5.30415L10.608 9.49998L14.8038 13.6958Z" fill="black"/>
<mask id="mask0" mask-type="alpha" maskUnits="userSpaceOnUse" x="3" y="3" width="13" height="13">
<path d="M14.8038 13.6958C15.1205 14.0125 15.1205 14.4875 14.8038 14.8041C14.6455 14.9625 14.4872 15.0416 14.2497 15.0416C14.0122 15.0416 13.8538 14.9625 13.6955 14.8041L9.49967 10.6083L5.30384 14.8041C5.14551 14.9625 4.98717 15.0416 4.74967 15.0416C4.51217 15.0416 4.35384 14.9625 4.19551 14.8041C3.87884 14.4875 3.87884 14.0125 4.19551 13.6958L8.39134 9.49998L4.19551 5.30415C3.87884 4.98748 3.87884 4.51248 4.19551 4.19581C4.51217 3.87915 4.98717 3.87915 5.30384 4.19581L9.49967 8.39165L13.6955 4.19581C14.0122 3.87915 14.4872 3.87915 14.8038 4.19581C15.1205 4.51248 15.1205 4.98748 14.8038 5.30415L10.608 9.49998L14.8038 13.6958Z" fill="white"/>
</mask>
<g mask="url(#mask0)">
<rect width="47.5" height="47.5" fill="#14141E"/>
</g>
</g>
</svg>
