<svg width="14" height="14" viewBox="0 0 14 14" fill="none" xmlns="http://www.w3.org/2000/svg">
<path fill-rule="evenodd" clip-rule="evenodd" d="M4.08333 4.08334C4.08333 2.45001 5.36667 1.16667 7 1.16667C8.63333 1.16667 9.91667 2.45001 9.91667 4.08334C9.91667 5.71667 8.63333 7 7 7C5.36667 7 4.08333 5.71667 4.08333 4.08334ZM12.25 11.0833V12.25C12.25 12.6 12.0167 12.8333 11.6667 12.8333C11.3167 12.8333 11.0833 12.6 11.0833 12.25V11.0833C11.0833 10.0917 10.325 9.33334 9.33333 9.33334H4.66667C3.675 9.33334 2.91667 10.0917 2.91667 11.0833V12.25C2.91667 12.6 2.68333 12.8333 2.33333 12.8333C1.98333 12.8333 1.75 12.6 1.75 12.25V11.0833C1.75 9.45 3.03333 8.16667 4.66667 8.16667H9.33333C10.9667 8.16667 12.25 9.45 12.25 11.0833ZM7 5.83334C6.00833 5.83334 5.25 5.075 5.25 4.08334C5.25 3.09167 6.00833 2.33334 7 2.33334C7.99167 2.33334 8.75 3.09167 8.75 4.08334C8.75 5.075 7.99167 5.83334 7 5.83334Z" fill="#AAAAAA"/>
<mask id="mask0" mask-type="alpha" maskUnits="userSpaceOnUse" x="1" y="1" width="12" height="12">
<path fill-rule="evenodd" clip-rule="evenodd" d="M4.08333 4.08334C4.08333 2.45001 5.36667 1.16667 7 1.16667C8.63333 1.16667 9.91667 2.45001 9.91667 4.08334C9.91667 5.71667 8.63333 7 7 7C5.36667 7 4.08333 5.71667 4.08333 4.08334ZM12.25 11.0833V12.25C12.25 12.6 12.0167 12.8333 11.6667 12.8333C11.3167 12.8333 11.0833 12.6 11.0833 12.25V11.0833C11.0833 10.0917 10.325 9.33334 9.33333 9.33334H4.66667C3.675 9.33334 2.91667 10.0917 2.91667 11.0833V12.25C2.91667 12.6 2.68333 12.8333 2.33333 12.8333C1.98333 12.8333 1.75 12.6 1.75 12.25V11.0833C1.75 9.45 3.03333 8.16667 4.66667 8.16667H9.33333C10.9667 8.16667 12.25 9.45 12.25 11.0833ZM7 5.83334C6.00833 5.83334 5.25 5.075 5.25 4.08334C5.25 3.09167 6.00833 2.33334 7 2.33334C7.99167 2.33334 8.75 3.09167 8.75 4.08334C8.75 5.075 7.99167 5.83334 7 5.83334Z" fill="white"/>
</mask>
<g mask="url(#mask0)">
<rect width="35" height="35" fill="#AAAAAA"/>
</g>
</svg>
