<svg xmlns="http://www.w3.org/2000/svg" xmlns:xlink="http://www.w3.org/1999/xlink" width="18" height="18" fill="none"><use xlink:href="#C" fill-rule="evenodd" fill="#000"/><mask id="A" mask-type="alpha" maskUnits="userSpaceOnUse" x="1" y="0" width="16" height="18"><use xlink:href="#C" fill-rule="evenodd" fill="#fff"/></mask><g mask="url(#A)"><path fill="#14141e" d="M0 0h45v45H0z"/></g><defs ><path id="C" d="M14.25 2.25h-1.5V1.5c0-.45-.3-.75-.75-.75s-.75.3-.75.75v.75h-4.5V1.5c0-.45-.3-.75-.75-.75s-.75.3-.75.75v.75h-1.5c-1.275 0-2.25.975-2.25 2.25V15c0 1.275.975 2.25 2.25 2.25h10.5c1.275 0 2.25-.975 2.25-2.25V4.5c0-1.275-.975-2.25-2.25-2.25zm-10.5 1.5h1.5v.75c0 .45.3.75.75.75s.75-.3.75-.75v-.75h4.5v.75c0 .45.3.75.75.75s.75-.3.75-.75v-.75h1.5c.45 0 .75.3.75.75v2.25H3V4.5c0-.45.3-.75.75-.75zm0 12h10.5c.45 0 .75-.3.75-.75V8.25H3V15c0 .45.3.75.75.75z"/></defs></svg>