<svg xmlns="http://www.w3.org/2000/svg" xmlns:xlink="http://www.w3.org/1999/xlink" width="18" height="18" fill="none"><use xlink:href="#C" fill-rule="evenodd" fill="#000"/><mask id="A" mask-type="alpha" maskUnits="userSpaceOnUse" x="2" y="0" width="14" height="18"><use xlink:href="#C" fill-rule="evenodd" fill="#fff"/></mask><g mask="url(#A)"><path fill="#14141e" d="M0 0h45v45H0z"/></g><defs ><path id="C" d="M13.5 2.25h-.75c0-.825-.675-1.5-1.5-1.5h-4.5c-.825 0-1.5.675-1.5 1.5H4.5c-1.275 0-2.25.975-2.25 2.25V15c0 1.275.975 2.25 2.25 2.25h9c1.275 0 2.25-.975 2.25-2.25V4.5c0-1.275-.975-2.25-2.25-2.25zm-6.75 0h4.5v1.5h-4.5v-1.5zm6.75 13.5c.45 0 .75-.3.75-.75V4.5c0-.45-.3-.75-.75-.75h-.75c0 .825-.675 1.5-1.5 1.5h-4.5c-.825 0-1.5-.675-1.5-1.5H4.5c-.45 0-.75.3-.75.75V15c0 .45.3.75.75.75h9z"/></defs></svg>