<svg xmlns="http://www.w3.org/2000/svg" xmlns:xlink="http://www.w3.org/1999/xlink" width="18" height="18" fill="none"><use xlink:href="#C" fill-rule="evenodd" fill="#000"/><mask id="A" mask-type="alpha" maskUnits="userSpaceOnUse" x="0" y="0" width="18" height="18"><use xlink:href="#C" fill-rule="evenodd" fill="#fff"/></mask><g mask="url(#A)"><path fill="#14141e" d="M0 0h45v45H0z"/></g><defs ><path id="C" d="M.75 9C.75 4.425 4.425.75 9 .75S17.25 4.425 17.25 9 13.575 17.25 9 17.25.75 13.575.75 9zm1.5 0A6.72 6.72 0 0 0 9 15.75 6.72 6.72 0 0 0 15.75 9 6.72 6.72 0 0 0 9 2.25 6.72 6.72 0 0 0 2.25 9zM9 6a3.01 3.01 0 0 0-3 3 3.01 3.01 0 0 0 3 3 3.01 3.01 0 0 0 3-3 3.01 3.01 0 0 0-3-3zM7.5 9c0 .825.675 1.5 1.5 1.5s1.5-.675 1.5-1.5S9.825 7.5 9 7.5 7.5 8.175 7.5 9z"/></defs></svg>