<svg xmlns="http://www.w3.org/2000/svg" width="18" height="18" fill="none"><path fill-rule="evenodd" d="M7.854.75h5.233c1.5 0 2.69 1.296 2.663 2.85V14.4c0 1.565-1.19 2.85-2.683 2.85H8.422c-.9 0-1.65-.662-1.838-1.567-.312-1.553-1.45-2.773-2.88-3.103-.86-.204-1.455-1.005-1.455-1.925V6.717c0-.52.187-1.016.53-1.382l3.713-3.983C6.86.96 7.34.75 7.854.75zm6.475 2.886V6.75H3.67v-.013c0-.172.057-.324.156-.43L7.49 2.36a.5.5 0 0 1 .378-.174h5.164c.72 0 1.31.645 1.296 1.452zM3.67 10.64V8.25H14.33v6.102c0 .816-.595 1.463-1.315 1.463H8.43c-.233 0-.452-.19-.51-.468-.4-2.052-1.923-3.68-3.847-4.127-.23-.054-.402-.29-.402-.58zm6.08-.89a.75.75 0 1 0 0 1.5H12a.75.75 0 1 0 0-1.5H9.75z" fill="#000"/></svg>