<svg xmlns="http://www.w3.org/2000/svg" xmlns:xlink="http://www.w3.org/1999/xlink" width="13" height="19" fill="none"><use xlink:href="#C" fill-rule="evenodd" fill="#979797"/><mask id="A" mask-type="alpha" maskUnits="userSpaceOnUse" x="0" y="0" width="13" height="19"><use xlink:href="#C" fill-rule="evenodd" fill="#fff"/></mask><g mask="url(#A)"><path fill="#14141e" d="M-3 .012h19v19H-3z"/></g><defs ><path id="C" d="M3.24 17.703l.995-6.433H.958c-.63 0-1.007-.698-.663-1.224l6.85-9.28c.47-.72 1.59-.28 1.443.568l-.976 6.438h3.638c.626 0 1.004.692.667 1.22l-7.228 9.26c-.462.72-1.58.298-1.45-.548zm3.433-8.348a.79.79 0 0 1-.78-.926l.483-3.586L2.42 9.687h2.737a.79.79 0 0 1 .782.913l-.563 3.64 4.426-4.884h-3.13z"/></defs></svg>