<svg xmlns="http://www.w3.org/2000/svg" xmlns:xlink="http://www.w3.org/1999/xlink" width="16" height="17" fill="none"><use xlink:href="#C" fill="#000"/><mask id="A" mask-type="alpha" maskUnits="userSpaceOnUse" x="3" y="3" width="10" height="11"><use xlink:href="#C" fill="#fff"/></mask><g mask="url(#A)"><path fill="#14141e" d="M0 .295h40v40.91H0z"/></g><defs ><path id="C" d="M12.467 12.09a.67.67 0 0 1 0 .955c-.133.136-.267.205-.467.205s-.333-.068-.467-.205L8 9.432l-3.533 3.614c-.133.136-.267.205-.467.205s-.333-.068-.467-.205a.67.67 0 0 1 0-.955l3.533-3.614-3.533-3.614a.67.67 0 0 1 0-.955c.267-.273.667-.273.933 0L8 7.523l3.533-3.614c.267-.273.667-.273.933 0a.67.67 0 0 1 0 .955L8.934 8.477l3.533 3.614z"/></defs></svg>