<svg xmlns="http://www.w3.org/2000/svg" xmlns:xlink="http://www.w3.org/1999/xlink" width="18" height="16" fill="none"><use xlink:href="#C" fill-rule="evenodd" fill="#000"/><mask id="a" maskUnits="userSpaceOnUse" x="0" y="0" width="18" height="16"><use xlink:href="#C" fill-rule="evenodd" fill="#fff"/></mask><g mask="url(#a)"><path fill="#14141e" d="M-.792-1.583h47.5v47.5h-47.5z"/></g><defs><path id="C" d="M15.042 3.167h-2.375v-.792A2.33 2.33 0 0010.292 0H7.125A2.33 2.33 0 004.75 2.375v.792H2.375A2.33 2.33 0 000 5.542v7.917a2.33 2.33 0 002.375 2.375h12.667a2.33 2.33 0 002.375-2.375V5.542a2.33 2.33 0 00-2.375-2.375zm-8.708-.792c0-.475.317-.792.792-.792h3.167c.475 0 .792.317.792.792v.792h-4.75v-.792zm4.75 11.875v-9.5h-4.75v9.5h4.75zm-9.5-.792V5.542c0-.475.317-.792.792-.792H4.75v9.5H2.375c-.475 0-.792-.317-.792-.792zm13.458.792c.475 0 .792-.317.792-.792V5.542c0-.475-.317-.792-.792-.792h-2.375v9.5h2.375z"/></defs></svg>