<svg xmlns="http://www.w3.org/2000/svg" xmlns:xlink="http://www.w3.org/1999/xlink" width="19" height="16" fill="none"><use xlink:href="#C" fill-rule="evenodd" fill="#000"/><mask id="a" maskUnits="userSpaceOnUse" x="0" y="0" width="19" height="16"><use xlink:href="#C" fill-rule="evenodd" fill="#fff"/></mask><g mask="url(#a)"><path fill="#14141e" d="M0-1.583h47.5v47.5H0z"/></g><defs><path id="C" d="M3.18 3.958C3.18 1.742 4.928 0 7.153 0s3.974 1.742 3.974 3.958-1.75 3.958-3.974 3.958S3.18 6.175 3.18 3.958zm11.128 9.5v1.583c0 .475-.318.792-.795.792s-.795-.317-.795-.792v-1.583c0-1.346-1.033-2.375-2.384-2.375h-6.36c-1.35 0-2.384 1.03-2.384 2.375v1.583c0 .475-.318.792-.795.792S0 15.517 0 15.042v-1.583C0 11.242 1.75 9.5 3.974 9.5h6.36c2.225 0 3.974 1.742 3.974 3.958zM7.153 6.333c-1.35 0-2.384-1.03-2.384-2.375s1.033-2.375 2.384-2.375 2.384 1.03 2.384 2.375-1.033 2.375-2.384 2.375zm8.902 3.325c-.397-.08-.874.158-.954.554s.16.87.556.95c1.033.238 1.75 1.188 1.75 2.296v1.583c0 .475.318.792.795.792s.795-.317.795-.792v-1.583c.08-1.82-1.113-3.404-2.94-3.8zM11.922.713c.16-.475.556-.712.954-.554 2.146.475 3.418 2.692 2.86 4.908-.318 1.425-1.43 2.454-2.86 2.85h-.16c-.398 0-.715-.237-.795-.633-.16-.396.16-.87.556-.95a2.43 2.43 0 001.749-1.742c.318-1.346-.477-2.612-1.75-2.93-.397-.08-.636-.554-.556-.95z"/></defs></svg>