<svg xmlns="http://www.w3.org/2000/svg" xmlns:xlink="http://www.w3.org/1999/xlink" width="18" height="18" fill="none"><use xlink:href="#C" fill-rule="evenodd" fill="#000"/><mask id="a" maskUnits="userSpaceOnUse" x="0" y="0" width="18" height="18"><use xlink:href="#C" fill-rule="evenodd" fill="#fff"/></mask><g mask="url(#a)"><path fill="#14141e" d="M0 0h45v45H0z"/></g><defs><path id="C" d="M15.225 11.55c.075-.15.225-.3.525-.3 1.275 0 2.25-.975 2.25-2.25s-.975-2.25-2.25-2.25h-.15c-.15 0-.3-.075-.375-.225 0-.075 0-.075-.075-.15-.075-.15-.075-.375.15-.6.9-.9.9-2.325 0-3.15-.45-.45-.975-.675-1.575-.675s-1.2.225-1.65.675a.462.462 0 01-.525.075c-.15 0-.3-.225-.3-.45C11.25.975 10.275 0 9 0S6.75.975 6.75 2.25v.15c0 .15-.075.3-.225.375-.075 0-.075 0-.15.075-.15.075-.375 0-.6-.15-.9-.9-2.325-.9-3.15 0A2.2 2.2 0 002.7 5.925c.15.15.15.375.075.6-.075.15-.3.3-.525.3C.975 6.825 0 7.8 0 9.075s.975 2.25 2.25 2.25h.15c.225 0 .375.15.45.3s.075.375-.15.6c-.45.45-.675.975-.675 1.575s.225 1.125.675 1.575a2.2 2.2 0 003.225-.075c.15-.15.375-.15.6-.075s.3.225.3.525c0 1.275.975 2.25 2.25 2.25s2.25-.975 2.25-2.25v-.15c0-.225.15-.375.3-.45s.375-.075.6.15c.9.9 2.325.9 3.15 0a2.2 2.2 0 00-.075-3.225c-.075-.15-.15-.375-.075-.525zM6 9a3.01 3.01 0 013-3 3.01 3.01 0 013 3 3.01 3.01 0 01-3 3 3.01 3.01 0 01-3-3zm1.5 0c0 .825.675 1.5 1.5 1.5s1.5-.675 1.5-1.5S9.825 7.5 9 7.5 7.5 8.175 7.5 9zm6.825 4.2c-.6-.675-.75-1.5-.45-2.25a1.95 1.95 0 011.8-1.2c.525 0 .825-.3.825-.75s-.3-.75-.75-.75h-.15a1.95 1.95 0 01-1.8-1.2c-.075-.075-.075-.15-.075-.225-.225-.675-.075-1.5.45-2.025.375-.375.375-.825.075-1.125a.68.68 0 00-.525-.225.68.68 0 00-.525.225c-.675.6-1.5.75-2.25.45s-1.2-.975-1.2-1.8c0-.525-.3-.825-.75-.825s-.75.3-.75.75v.15a1.95 1.95 0 01-1.2 1.8c-.075.075-.15.075-.225.075-.675.225-1.5.075-2.025-.45-.375-.375-.825-.375-1.125-.075s-.3.75 0 1.05c.6.675.75 1.5.45 2.25s-.975 1.275-1.8 1.275H2.25c-.45 0-.75.3-.75.75s.3.75.75.75h.15a1.95 1.95 0 011.8 1.2c.375.75.225 1.575-.375 2.175-.225.225-.3.375-.3.6a.68.68 0 00.225.525c.3.3.75.3 1.05 0a2.05 2.05 0 011.425-.6c.3 0 .6 0 .825.15.75.3 1.275.975 1.275 1.8v.075c0 .45.3.75.75.75s.75-.3.75-.75v-.15a1.95 1.95 0 011.2-1.8c.75-.375 1.575-.225 2.175.375.225.225.375.3.6.3a.68.68 0 00.525-.225.68.68 0 00.225-.525.68.68 0 00-.225-.525z"/></defs></svg>