<svg xmlns="http://www.w3.org/2000/svg" viewBox="0 0 24 24"><defs><style>.cls-1{fill:none;}</style></defs><title>car</title><g id="Layer_2" data-name="Layer 2"><g id="Layer_1-2" data-name="Layer 1"><rect class="cls-1" width="24" height="24"/><path d="M18.37,18.54a3.08,3.08,0,0,1-2.88-2H8.25a3.12,3.12,0,0,1-2.11,1.87,3.4,3.4,0,0,1-.78.1,3.09,3.09,0,0,1-2.88-2A2.54,2.54,0,0,1,0,14V12.67a2.55,2.55,0,0,1,1.86-2.45L5.23,9.3l2-2.63A3.07,3.07,0,0,1,9.68,5.46h7a3,3,0,0,1,2.6,1.44L20.8,9.38l1.72.79A2.53,2.53,0,0,1,24,12.48V14a2.54,2.54,0,0,1-2.52,2.55h-.22a3.12,3.12,0,0,1-2.11,1.87A3.47,3.47,0,0,1,18.37,18.54Zm0-4.31a1.2,1.2,0,1,0,0,2.39,1.19,1.19,0,0,0,.85-.35,1.2,1.2,0,0,0-.85-2Zm-13,0a1.2,1.2,0,1,0,.85,2,1.16,1.16,0,0,0,.35-.84A1.2,1.2,0,0,0,5.36,14.23Zm16.12.44a.63.63,0,0,0,.61-.58V12.48a.63.63,0,0,0-.37-.58l-2-.9a1,1,0,0,1-.42-.38l-1.7-2.71a1.13,1.13,0,0,0-1-.54h-7a1.18,1.18,0,0,0-.94.45L6.55,10.71a1,1,0,0,1-.5.34l-3.69,1a.63.63,0,0,0-.46.62V14a.66.66,0,0,0,.46.63A3.12,3.12,0,0,1,5,12.35l.35,0a3.1,3.1,0,0,1,3,2.34h7A3.13,3.13,0,0,1,18,12.35l.34,0a3.11,3.11,0,0,1,3,2.34Z"/></g></g></svg>