<svg xmlns="http://www.w3.org/2000/svg" viewBox="0 0 24 24"><g data-name="Layer 2"><g data-name="Layer 1"><path fill="none" d="M0 0h24v24H0z"/><path d="M18.37 18.54a3.08 3.08 0 01-2.88-2H8.25a3.12 3.12 0 01-2.11 1.87 3.4 3.4 0 01-.78.1 3.09 3.09 0 01-2.88-2A2.54 2.54 0 010 14v-1.33a2.55 2.55 0 011.86-2.45l3.37-.92 2-2.63a3.07 3.07 0 012.45-1.21h7a3 3 0 012.6 1.44l1.52 2.48 1.72.79A2.53 2.53 0 0124 12.48V14a2.54 2.54 0 01-2.52 2.55h-.22a3.12 3.12 0 01-2.11 1.87 3.47 3.47 0 01-.78.12zm0-4.31a1.2 1.2 0 100 2.39 1.19 1.19 0 00.85-.35 1.2 1.2 0 00-.85-2zm-13 0a1.2 1.2 0 10.85 2 1.16 1.16 0 00.35-.84 1.2 1.2 0 00-1.21-1.16zm16.12.44a.63.63 0 00.61-.58v-1.61a.63.63 0 00-.37-.58l-2-.9a1 1 0 01-.42-.38l-1.7-2.71a1.13 1.13 0 00-1-.54h-7a1.18 1.18 0 00-.94.45l-2.12 2.89a1 1 0 01-.5.34l-3.69 1a.63.63 0 00-.46.62V14a.66.66 0 00.46.63A3.12 3.12 0 015 12.35h.35a3.1 3.1 0 013 2.34h7A3.13 3.13 0 0118 12.35h.34a3.11 3.11 0 013 2.34z"/></g></g></svg>